<svg width="20" height="20" viewBox="0 0 20 20" fill="none" xmlns="http://www.w3.org/2000/svg">
<path d="M7.22113 13.1121C7.42474 13.2562 7.66827 13.3332 7.91774 13.3324V13.3291C8.15299 13.3296 8.38317 13.261 8.57975 13.1318C8.77633 13.0026 8.93067 12.8185 9.02359 12.6024L9.53442 11.0491C9.65242 10.6971 9.85058 10.3776 10.1134 10.1155C10.3762 9.8534 10.6963 9.65607 11.0486 9.53907L12.5303 9.0574C12.7689 8.97357 12.9751 8.81657 13.1193 8.60873C13.2637 8.40098 13.3388 8.15298 13.3339 7.90006C13.3291 7.64714 13.2447 7.40217 13.0926 7.20001C12.9405 6.99785 12.7286 6.8488 12.4869 6.77406L11.0244 6.29906C10.6707 6.18134 10.3492 5.98273 10.0856 5.71901C9.822 5.45529 9.62358 5.13373 9.50608 4.77989L9.02442 3.29906C8.94042 3.0632 8.785 2.85937 8.57984 2.71588C8.37467 2.5724 8.12992 2.49637 7.87956 2.49839C7.6292 2.50041 7.38568 2.58036 7.18285 2.72713C6.98002 2.87391 6.82794 3.08022 6.74774 3.31739L6.26191 4.81072C6.14476 5.15427 5.95113 5.46675 5.69562 5.72457C5.44011 5.98238 5.1294 6.17882 4.78691 6.29906L3.30608 6.77489C3.12993 6.8365 2.97053 6.93822 2.84046 7.07204C2.71039 7.20585 2.61323 7.36808 2.55665 7.54591C2.50007 7.72373 2.48562 7.91227 2.51444 8.09665C2.54328 8.28102 2.61458 8.45615 2.72274 8.60823C2.87015 8.81573 3.07923 8.9714 3.32024 9.05323L4.78191 9.5274C5.1366 9.64607 5.45874 9.84582 5.72274 10.1107C5.79363 10.1811 5.85988 10.256 5.92108 10.3349C6.08706 10.5497 6.21528 10.7912 6.30024 11.0491L6.78191 12.5282C6.86397 12.7638 7.01752 12.9679 7.22113 13.1121ZM13.61 17.3182C13.4513 17.2051 13.3318 17.0451 13.2683 16.8607L12.995 16.0216C12.9418 15.862 12.8526 15.7168 12.7342 15.5974C12.6154 15.4783 12.4704 15.3886 12.3108 15.3357L11.485 15.0666C11.293 15.0021 11.1263 14.8784 11.0092 14.7132C10.8948 14.553 10.8335 14.3609 10.8342 14.1641C10.8344 13.9659 10.8964 13.7728 11.0117 13.6116C11.126 13.4495 11.2888 13.3278 11.4767 13.2641L12.315 12.9924C12.4708 12.9371 12.6119 12.8468 12.7275 12.7285C12.8431 12.6101 12.93 12.467 12.9817 12.3099L13.2517 11.4832C13.3152 11.2964 13.4352 11.1338 13.5951 11.0181C13.7549 10.9024 13.9468 10.8392 14.1442 10.8373C14.3416 10.8354 14.5347 10.8948 14.6968 11.0074C14.8588 11.12 14.982 11.2801 15.0492 11.4657L15.3233 12.3107C15.377 12.4691 15.4666 12.613 15.5852 12.7309C15.7038 12.8489 15.848 12.9378 16.0067 12.9907L16.8333 13.2599C17.0239 13.3195 17.1908 13.4376 17.3106 13.5974C17.4303 13.7571 17.4966 13.9506 17.5002 14.1502C17.5038 14.3499 17.4444 14.5456 17.3306 14.7096C17.2168 14.8736 17.0541 14.9976 16.8658 15.0641L16.0208 15.3382C15.8624 15.3922 15.7185 15.4817 15.6 15.5999C15.4814 15.7189 15.3921 15.8638 15.3392 16.0232L15.0708 16.8474C15.0063 17.0393 14.8822 17.2057 14.7167 17.3224C14.5567 17.4374 14.3646 17.4992 14.1675 17.4991C13.9673 17.4991 13.7721 17.4357 13.61 17.3182Z" fill="white"/>
</svg>
