<svg width="32" height="32" viewBox="0 0 32 32" fill="none" xmlns="http://www.w3.org/2000/svg">
<g clip-path="url(#clip0_330_23305)">
<rect width="32" height="32" fill="#00894F"/>
<rect width="32" height="32" rx="16" fill="#00894F"/>
<path d="M20.7945 17.6662C21.8301 17.6662 22.6695 18.5057 22.6695 19.5412V20.2954C22.6695 21.2068 22.2717 22.0728 21.5801 22.6665C20.2756 23.7864 18.4087 24.3338 16.0003 24.3338C13.5924 24.3338 11.7267 23.7867 10.4243 22.6669C9.7338 22.0732 9.33659 21.2079 9.33659 20.2972V19.5412C9.33659 18.5057 10.1761 17.6662 11.2116 17.6662H20.7945ZM20.7945 18.9162H11.2116C10.8664 18.9162 10.5866 19.196 10.5866 19.5412V20.2972C10.5866 20.8437 10.8249 21.3628 11.2392 21.7191C12.2876 22.6204 13.8676 23.0838 16.0003 23.0838C18.1336 23.0838 19.7152 22.6202 20.7659 21.7181C21.1808 21.3618 21.4195 20.8422 21.4195 20.2954V19.5412C21.4195 19.196 21.1397 18.9162 20.7945 18.9162ZM15.9158 7.67237L16.0006 7.66666C16.317 7.66666 16.5785 7.90179 16.6198 8.20686L16.6256 8.29166L16.6249 8.91583L19.542 8.91626C20.5775 8.91626 21.417 9.75572 21.417 10.7913V14.5451C21.417 15.5806 20.5775 16.4201 19.542 16.4201H12.4586C11.4231 16.4201 10.5836 15.5806 10.5836 14.5451V10.7913C10.5836 9.75572 11.4231 8.91626 12.4586 8.91626L15.3749 8.91583L15.3756 8.29166C15.3756 7.97525 15.6107 7.71376 15.9158 7.67237ZM19.542 10.1663H12.4586C12.1135 10.1663 11.8336 10.4461 11.8336 10.7913V14.5451C11.8336 14.8902 12.1135 15.1701 12.4586 15.1701H19.542C19.8872 15.1701 20.167 14.8902 20.167 14.5451V10.7913C20.167 10.4461 19.8872 10.1663 19.542 10.1663ZM14.1247 11.4163C14.6997 11.4163 15.1658 11.8824 15.1658 12.4573C15.1658 13.0323 14.6997 13.4984 14.1247 13.4984C13.5497 13.4984 13.0836 13.0323 13.0836 12.4573C13.0836 11.8824 13.5497 11.4163 14.1247 11.4163ZM17.8687 11.4163C18.4437 11.4163 18.9098 11.8824 18.9098 12.4573C18.9098 13.0323 18.4437 13.4984 17.8687 13.4984C17.2937 13.4984 16.8276 13.0323 16.8276 12.4573C16.8276 11.8824 17.2937 11.4163 17.8687 11.4163Z" fill="white"/>
</g>
<defs>
<clipPath id="clip0_330_23305">
<rect width="32" height="32" fill="white"/>
</clipPath>
</defs>
</svg>
