<svg width="20" height="20" viewBox="0 0 20 20" fill="none" xmlns="http://www.w3.org/2000/svg">
<path d="M14.7955 11.6668C15.8306 11.6668 16.6696 12.5058 16.6696 13.5409V14.0204C16.6696 14.7656 16.4032 15.4863 15.9187 16.0525C14.6108 17.5804 12.6215 18.3344 10.0004 18.3344C7.37883 18.3344 5.39049 17.5801 4.08524 16.0516C3.6021 15.4858 3.33667 14.7662 3.33667 14.0222V13.5409C3.33667 12.5058 4.17571 11.6668 5.21073 11.6668H14.7955ZM14.7955 12.9168H5.21073C4.86607 12.9168 4.58667 13.1962 4.58667 13.5409V14.0222C4.58667 14.4686 4.74593 14.9004 5.0358 15.2398C6.08023 16.4629 7.71846 17.0844 10.0004 17.0844C12.2823 17.0844 13.922 16.4629 14.969 15.2396C15.2598 14.8999 15.4196 14.4675 15.4196 14.0204V13.5409C15.4196 13.1962 15.1402 12.9168 14.7955 12.9168ZM10.0004 1.67072C12.3016 1.67072 14.1671 3.5362 14.1671 5.83738C14.1671 8.13857 12.3016 10.0041 10.0004 10.0041C7.69919 10.0041 5.83371 8.13857 5.83371 5.83738C5.83371 3.5362 7.69919 1.67072 10.0004 1.67072ZM10.0004 2.92072C8.38958 2.92072 7.08371 4.22656 7.08371 5.83738C7.08371 7.44822 8.38958 8.75407 10.0004 8.75407C11.6112 8.75407 12.9171 7.44822 12.9171 5.83738C12.9171 4.22656 11.6112 2.92072 10.0004 2.92072Z" fill="white"/>
</svg>
