<svg width="14" height="14" viewBox="0 0 14 14" fill="none" xmlns="http://www.w3.org/2000/svg">
<path d="M5.6389 0C8.7532 0 11.2778 2.52462 11.2778 5.6389C11.2778 6.98593 10.8054 8.2226 10.0174 9.19241L13.8291 13.0042C14.057 13.232 14.057 13.6013 13.8291 13.8291C13.6221 14.0363 13.298 14.0551 13.0696 13.8856L13.0042 13.8291L9.19241 10.0174C8.2226 10.8054 6.98593 11.2778 5.6389 11.2778C2.52462 11.2778 0 8.7532 0 5.6389C0 2.52462 2.52462 0 5.6389 0ZM5.6389 1.16667C3.16895 1.16667 1.16667 3.16895 1.16667 5.6389C1.16667 8.10881 3.16895 10.1111 5.6389 10.1111C8.10881 10.1111 10.1111 8.10881 10.1111 5.6389C10.1111 3.16895 8.10881 1.16667 5.6389 1.16667Z" fill="white"/>
</svg>
